<?xml version="1.0" encoding="UTF-8"?>
<!-- Edit this text area to see live preview to the right -->
<svg width="200" height="300" xmlns="http://www.w3.org/2000/svg"
   xmlns:xlink="http://www.w3.org/1999/xlink" version="1.1" >

	<defs></defs>

	<!-- <polygon points="0,0 200,0 200,300 0,300" fill="/" /> -->
	<!-- three far mountains -->
	<polygon points="80,120 100,0 120,120" fill="#999" />
	<polygon points="60,120 75,20 90,120" fill="#bbb" />
	<polygon points="110,120 125,20 140,120" fill="#aaa" />
	<!-- one medium mountain -->
	<polygon points="50,120 100,50 150,120" fill="#44c" />
	<polygon points="80,76 100,80 120,76 100,50" fill="#fff" />
	<!-- two close mountains -->
	<polygon points="20,120 60,70 100,120" fill="#66C" />
	<polygon points="180,120 140,70 100,120" fill="#66c" />
	<!-- ground -->
	<polygon points="0,125 15,115 185,115 200,125 200,130 0,130" fill="#292" />
	<!-- underground -->
	<polygon points="00,130 80,220 100,200 120,220 200,130" fill="#88a" />
	<polygon points="30,130 50,180 80,190 100,180 120,190 150,170 170,130" fill="#669" />
	<polygon points="40,130 100,150 160,130" fill="#442" />
	<polygon points="40,130 50,140 60,130" fill="#552" />
	<polygon points="160,130 150,140 140,130" fill="#552" />
	<!-- flight lines -->
	<line x1="30" x2="30" y1="180" y2="240" stroke="white" stroke-width="3" stroke-linecap="round" />
	<line x1="170" x2="170" y1="200" y2="260" stroke="white" stroke-width="3" stroke-linecap="round" />
	<line x1="120" x2="120" y1="260" y2="290" stroke="white" stroke-width="3" stroke-linecap="round" />
	<line x1="80" x2="80" y1="240" y2="280" stroke="white" stroke-width="3" stroke-linecap="round" />
	<!-- escola -->
	<polygon points="80,120 80,100 85,100 150,100 150,120"  fill="#fb3" />
	<polygon points="80,120 150,120 150,117 80,117" fill="#fd9800"  />
	<polygon points="115,120 105,120 105,110 115,110" fill="#ccf" stroke="#555" />
	<!-- flag -->
	<polygon points="70,90 80,90 80,95 70,95" stroke="#666" fill="#3d3" />
	<line x1="70" y1="120" x2="70" y2="90" stroke="#666" stroke-width="2" />
	<!-- windows -->
	<!-- <polygon points="215,190 215,195 222,195 222,190 " stroke="#666" fill="white" />
	<polygon points="205,190 205,195 212,195 212,190 " stroke="#666" fill="white" /> -->
	<!-- roof -->
	<polygon points="80,100 80,97 110,92 150,97 150,100 " fill="#d83621" />
	<!-- <polygon points="200,190 220,195 230,195 230,190 " stroke="#666" fill="white" /> -->
	<!-- <polygon points="220,190 220,195 230,195 230,190 " stroke="#666" fill="white" /> -->
</svg>
